<?xml version="1.0" encoding="UTF-8"?>
<svg version="1.1" xmlns="http://www.w3.org/2000/svg" width="500" height="500">
<path d="M0 0 C165 0 330 0 500 0 C500 165 500 330 500 500 C335 500 170 500 0 500 C0 335 0 170 0 0 Z " fill="#FEFEFE" transform="translate(0,0)"/>
<path d="M0 0 C11.50018241 -0.20862498 22.99991408 -0.36849178 34.50160408 -0.46630955 C39.84257005 -0.51326085 45.18224061 -0.57692826 50.52246094 -0.67895508 C55.67728243 -0.77682226 60.83085907 -0.83057313 65.98653793 -0.85389519 C67.95228554 -0.87051201 69.91796571 -0.90296352 71.88318253 -0.95157051 C87.26333611 -1.31681179 87.26333611 -1.31681179 91.45483398 1.86135864 C93.04910896 4.19811531 94.04708856 6.34473079 95 9 C95.59651367 10.00546875 96.19302734 11.0109375 96.80761719 12.046875 C97.5447998 13.38492188 97.5447998 13.38492188 98.296875 14.75 C98.85753662 15.76118896 99.41819824 16.77237793 99.99584961 17.81420898 C100.86415405 19.39117554 100.86415405 19.39117554 101.75 21 C105.74175824 28.18892621 109.73998644 35.36636563 113.9375 42.4375 C118.07318033 49.40769944 122.1411252 56.41505843 126.1875 63.4375 C126.81897949 64.53312256 127.45045898 65.62874512 128.10107422 66.75756836 C130.74916183 71.35352491 133.39578174 75.95032574 136.04199219 80.54736328 C137.39578072 82.89910938 138.75003694 85.25058512 140.10473633 87.60180664 C141.37100994 89.79974434 142.6365238 91.99812 143.90112305 94.19702148 C147.53553564 100.50490899 151.23054848 106.77183611 155 113 C157.75746999 109.69461423 160.02895473 106.41057543 162.1015625 102.640625 C162.66866943 101.61654541 163.23577637 100.59246582 163.82006836 99.53735352 C164.4156958 98.45252686 165.01132324 97.3677002 165.625 96.25 C169.65708274 88.97685707 173.69013149 81.71249288 177.9375 74.5625 C184.05889421 64.24641627 190.02775958 53.84285235 196.01367188 43.44775391 C198.01244232 39.97840334 200.01349427 36.5103806 202.015625 33.04296875 C208.36724836 22.04200096 214.71702863 11.04036503 221 0 C223.61712286 2.36271395 225.17321749 4.83435853 226.86328125 7.91796875 C227.41306641 8.91256104 227.96285156 9.90715332 228.52929688 10.93188477 C229.11775391 12.00623779 229.70621094 13.08059082 230.3125 14.1875 C231.57768492 16.47231973 232.84465753 18.75615034 234.11328125 21.0390625 C234.43660431 21.62126053 234.75992737 22.20345856 235.0930481 22.80329895 C238.31991997 28.60082263 241.64769603 34.33687507 245 40.0625 C245.5657373 41.03316406 246.13147461 42.00382812 246.71435547 43.00390625 C249.77795265 48.24935282 252.88126572 53.4676381 256.02734375 58.6640625 C256.68154297 59.75581787 257.33574219 60.84757324 258.00976562 61.97241211 C259.26847199 64.07169074 260.5388305 66.16403893 261.82226562 68.24829102 C262.6662793 69.66259399 262.6662793 69.66259399 263.52734375 71.10546875 C264.02999756 71.93199951 264.53265137 72.75853027 265.05053711 73.61010742 C266.24920375 76.62727063 266.01696095 77.93591748 265 81 C264.04545333 82.93527142 263.01290909 84.8329214 261.9296875 86.69921875 C261.28829834 87.81248535 260.64690918 88.92575195 259.98608398 90.07275391 C259.28250636 91.27773761 258.5788085 92.48265113 257.875 93.6875 C257.14786085 94.94411816 256.42138967 96.20112306 255.69555664 97.45849609 C254.2003235 100.04627864 252.7012215 102.63175689 251.19873047 105.21533203 C248.54390233 109.78153198 245.90932376 114.3593331 243.27392578 118.93676758 C240.80625649 123.22090654 238.33244827 127.50148784 235.85888672 131.78222656 C232.73675393 137.18670648 229.61862248 142.593494 226.5 148 C225.26562954 150.13932554 224.03125453 152.27864845 222.796875 154.41796875 C220.49030144 158.41590908 218.18456874 162.41433196 215.87988281 166.4133606 C214.50193062 168.80426597 213.12365828 171.19498672 211.74536133 173.58569336 C210.77459018 175.26983963 209.80428126 176.95425231 208.83398438 178.63867188 C208.24423828 179.66154297 207.65449219 180.68441406 207.046875 181.73828125 C206.52963867 182.63587158 206.01240234 183.53346191 205.47949219 184.45825195 C204.99125977 185.29702881 204.50302734 186.13580566 204 187 C203.65183731 187.86277054 203.30367462 188.72554108 202.94496155 189.61445618 C201 192 201 192 197.22489929 192.66183472 C195.61744041 192.70381892 194.00911296 192.71787642 192.40112305 192.71044922 C191.5227478 192.72563599 190.64437256 192.74082275 189.73937988 192.75646973 C186.829772 192.79893603 183.92161744 192.80376668 181.01171875 192.8046875 C178.99013159 192.81821188 176.96855027 192.83263865 174.94697571 192.84793091 C170.70579294 192.87337736 166.46512448 192.87861777 162.22387695 192.87158203 C156.79216791 192.86548834 151.36324803 192.92331809 145.93213177 192.99824333 C141.75494883 193.04637395 137.57843771 193.05329168 133.40101051 193.0485878 C131.39909585 193.05263886 129.39715592 193.07113254 127.39551353 193.10439682 C111.7632844 193.33752748 111.7632844 193.33752748 107.52005005 190.11885071 C105.92804633 187.78533267 104.93838353 185.65571966 104 183 C103.42443359 182.03118896 102.84886719 181.06237793 102.25585938 180.06420898 C101.78986328 179.21673096 101.32386719 178.36925293 100.84375 177.49609375 C100.30379395 176.52115967 99.76383789 175.54622559 99.20751953 174.54174805 C98.64403809 173.51734619 98.08055664 172.49294434 97.5 171.4375 C92.79885433 162.965813 88.02848622 154.54374102 83.125 146.1875 C78.0240304 137.4915545 72.9899162 128.75993887 68 120 C63.04650554 111.30581837 58.0562137 102.63502325 53 94 C47.9681021 85.4048271 42.99610876 76.77687778 38.0625 68.125 C32.87557423 59.02919748 27.67267704 49.94317261 22.4375 40.875 C21.83357422 39.82779785 21.22964844 38.7805957 20.60742188 37.70166016 C17.68364829 32.63487574 14.75319789 27.57214439 11.80705261 22.51834106 C10.39634215 20.09735623 8.98880057 17.67453673 7.58157349 15.25152588 C6.58087323 13.53157887 5.57551306 11.81434579 4.57006836 10.09716797 C3.97073486 9.06479004 3.37140137 8.03241211 2.75390625 6.96875 C2.22095947 6.05544922 1.6880127 5.14214844 1.13891602 4.20117188 C0 2 0 2 0 0 Z " fill="#EC1C24" transform="translate(22,64)"/>
<path d="M0 0 C29.7 0 59.4 0 90 0 C85.70146306 8.59707388 81.45633184 16.90520706 76.5625 25.125 C75.3334578 27.21024386 74.10564388 29.29621204 72.87890625 31.3828125 C72.24484863 32.46079102 71.61079102 33.53876953 70.95751953 34.64941406 C67.59355129 40.40734624 64.29881296 46.20460781 61 52 C56.04724765 60.69459765 51.05620703 69.36498813 46 78 C40.62275623 87.1850711 35.31864035 96.41038462 30.046875 105.65625 C24.61228221 115.18768966 19.14333434 124.69874452 13.65136719 134.19726562 C10.39255082 139.83811749 7.14757113 145.48638244 3.92578125 151.1484375 C3.58171234 151.75262512 3.23764343 152.35681274 2.88314819 152.97930908 C1.24603745 155.85438298 -0.38892295 158.73060384 -2.01953125 161.609375 C-3.27556351 163.81678489 -4.58206389 165.99602727 -5.93017578 168.1484375 C-7.67919225 171.10395839 -8.61403755 173.95922312 -9.55029297 177.2578125 C-11.71538503 183.61037197 -14.09078798 188.4671977 -20 192 C-33.32339346 195.89620365 -48.87281217 193.95453255 -62.54455566 193.37329102 C-67.89272449 193.16758438 -73.24275438 193.07712591 -78.59375 192.9765625 C-89.06745133 192.7629256 -99.53277781 192.42227391 -110 192 C-108.90226139 189.78453726 -107.80233853 187.57020354 -106.70117188 185.35644531 C-106.39427429 184.73649689 -106.08737671 184.11654846 -105.7711792 183.47781372 C-102.92141961 177.7562143 -99.76634745 172.24372807 -96.5 166.75 C-95.26891013 164.65921977 -94.03846367 162.56806058 -92.80859375 160.4765625 C-92.18065918 159.41083008 -91.55272461 158.34509766 -90.90576172 157.24707031 C-87.76168919 151.89014428 -84.66207023 146.50775935 -81.5625 141.125 C-80.94125244 140.04718262 -80.32000488 138.96936523 -79.67993164 137.85888672 C-77.78605938 134.57291441 -75.89291928 131.28652136 -74 128 C-66.71806492 115.35697001 -59.42953958 102.71867668 -52.0625 90.125 C-46.98724877 81.44737759 -41.97741233 72.73394432 -37 64 C-32.02253171 55.26595749 -27.00929971 46.55481056 -21.9375 37.875 C-14.57786158 25.27742072 -7.29086807 12.63750466 0 0 Z " fill="#ED1C24" transform="translate(388,64)"/>
<path d="M0 0 C2.61712286 2.36271395 4.17321749 4.83435853 5.86328125 7.91796875 C6.41306641 8.91256104 6.96285156 9.90715332 7.52929688 10.93188477 C8.11775391 12.00623779 8.70621094 13.08059082 9.3125 14.1875 C10.57768492 16.47231973 11.84465753 18.75615034 13.11328125 21.0390625 C13.59826584 21.91235954 13.59826584 21.91235954 14.0930481 22.80329895 C17.31991997 28.60082263 20.64769603 34.33687507 24 40.0625 C24.5657373 41.03316406 25.13147461 42.00382812 25.71435547 43.00390625 C28.77795265 48.24935282 31.88126572 53.4676381 35.02734375 58.6640625 C35.68154297 59.75581787 36.33574219 60.84757324 37.00976562 61.97241211 C38.26847199 64.07169074 39.5388305 66.16403893 40.82226562 68.24829102 C41.38494141 69.19115967 41.94761719 70.13402832 42.52734375 71.10546875 C43.02999756 71.93199951 43.53265137 72.75853027 44.05053711 73.61010742 C45.24920375 76.62727063 45.01696095 77.93591748 44 81 C43.04545333 82.93527142 42.01290909 84.8329214 40.9296875 86.69921875 C39.96760376 88.36911865 39.96760376 88.36911865 38.98608398 90.07275391 C38.28250636 91.27773761 37.5788085 92.48265113 36.875 93.6875 C36.14786085 94.94411816 35.42138967 96.20112306 34.69555664 97.45849609 C33.2003235 100.04627864 31.7012215 102.63175689 30.19873047 105.21533203 C27.54390233 109.78153198 24.90932376 114.3593331 22.27392578 118.93676758 C19.80625649 123.22090654 17.33244827 127.50148784 14.85888672 131.78222656 C12.36219783 136.10404947 9.86802987 140.42732363 7.37451172 144.75097656 C6.13355166 146.9018878 4.89170221 149.05228617 3.64892578 151.20214844 C0.71910109 156.27249488 -2.20213528 161.34725255 -5.09432983 166.43914795 C-6.45953665 168.84149946 -7.82943671 171.24115891 -9.19970703 173.640625 C-10.16376858 175.33333218 -11.12103533 177.02990354 -12.078125 178.7265625 C-12.66464844 179.75265625 -13.25117188 180.77875 -13.85546875 181.8359375 C-14.62346802 183.19017822 -14.62346802 183.19017822 -15.40698242 184.57177734 C-17.03950407 187.06021571 -18.8257604 188.97793069 -21 191 C-25.36858411 184.66497212 -29.26615998 178.16284736 -33 171.4375 C-37.63428296 163.16381931 -42.33677986 154.9355669 -47.125 146.75 C-47.70258057 145.75822754 -48.28016113 144.76645508 -48.87524414 143.74462891 C-51.6685421 138.95420371 -54.48687601 134.18244562 -57.36328125 129.44140625 C-58.14324463 128.13961426 -58.14324463 128.13961426 -58.93896484 126.81152344 C-59.91033682 125.19162061 -60.89309058 123.57846741 -61.88916016 121.97363281 C-62.52990479 120.89807129 -62.52990479 120.89807129 -63.18359375 119.80078125 C-63.56056396 119.18372314 -63.93753418 118.56666504 -64.32592773 117.9309082 C-65.26477199 115.24154955 -64.82783074 113.70940348 -64 111 C-62.74755859 108.45825195 -62.74755859 108.45825195 -61.1484375 105.73828125 C-60.25415039 104.20397461 -60.25415039 104.20397461 -59.34179688 102.63867188 C-58.69275391 101.54103516 -58.04371094 100.44339844 -57.375 99.3125 C-56.69521082 98.15083078 -56.01618752 96.98871307 -55.33789062 95.82617188 C-53.92841697 93.41182554 -52.51567013 90.99944078 -51.10058594 88.58837891 C-47.86944479 83.07681417 -44.68727005 77.5370062 -41.5 72 C-40.25023053 69.83320035 -39.00022976 67.6665341 -37.75 65.5 C-37.13125 64.4275 -36.5125 63.355 -35.875 62.25 C-30.25 52.5 -30.25 52.5 -28.37231445 49.24536133 C-27.13124746 47.09416776 -25.89019907 44.94296345 -24.64916992 42.79174805 C-21.73501656 37.74037001 -18.82068182 32.6890969 -15.90567017 27.63821411 C-14.87326522 25.84933082 -13.84092044 24.06041283 -12.80859375 22.27148438 C-11.51314052 20.02662364 -10.2175743 17.7818281 -8.921875 15.53710938 C-5.93692086 10.36428226 -2.95754683 5.18854991 0 0 Z " fill="#AC1929" transform="translate(243,64)"/>
<path d="M0 0 C5.76846375 4.15695641 9.28741211 8.9499008 11.4609375 15.7734375 C11.76729544 18.50581914 11.93968753 20.93019154 11.8984375 23.6484375 C11.89086426 24.35025146 11.88329102 25.05206543 11.87548828 25.77514648 C11.61073922 34.1321343 8.76222967 40.15419404 3.171875 46.26953125 C-5.07036156 53.51441955 -15.15526562 53.33414097 -25.5390625 52.7734375 C-33.12719065 51.66243777 -38.60641433 47.52490527 -43.5390625 41.7734375 C-48.67763773 34.05176128 -48.56086966 24.68034065 -47.5390625 15.7734375 C-45.01136594 6.81584003 -39.01362273 1.29546236 -31.1015625 -3.1640625 C-20.78914638 -6.37779376 -9.25897746 -5.40318411 0 0 Z " fill="#042768" transform="translate(378.5390625,367.2265625)"/>
<path d="M0 0 C5.76846375 4.15695641 9.28741211 8.9499008 11.4609375 15.7734375 C11.76729544 18.50581914 11.93968753 20.93019154 11.8984375 23.6484375 C11.89086426 24.35025146 11.88329102 25.05206543 11.87548828 25.77514648 C11.61073922 34.1321343 8.76222967 40.15419404 3.171875 46.26953125 C-5.07036156 53.51441955 -15.15526562 53.33414097 -25.5390625 52.7734375 C-33.12719065 51.66243777 -38.60641433 47.52490527 -43.5390625 41.7734375 C-48.67763773 34.05176128 -48.56086966 24.68034065 -47.5390625 15.7734375 C-45.01136594 6.81584003 -39.01362273 1.29546236 -31.1015625 -3.1640625 C-20.78914638 -6.37779376 -9.25897746 -5.40318411 0 0 Z " fill="#042768" transform="translate(312.5390625,367.2265625)"/>
<path d="M0 0 C1.25554687 -0.02900391 2.51109375 -0.05800781 3.8046875 -0.08789062 C11.14098805 -0.1378759 17.22336901 0.23882713 23.5 4.3125 C26.27609445 7.2568426 26.71106912 9.76491796 26.9375 13.6875 C26.75746349 19.36338795 24.52179485 23.29070515 20.5 27.3125 C21.44875 27.910625 22.3975 28.50875 23.375 29.125 C26.5 31.3125 26.5 31.3125 28.5 34.3125 C29.19484389 39.45919251 29.08452659 43.9729599 27 48.75 C21.58561598 54.29974362 16.77133796 55.5624161 9.19140625 55.73828125 C7.17125105 55.73665382 5.15372969 55.71229493 3.1340332 55.66918945 C1.04288779 55.62458164 -1.04710653 55.6076633 -3.13867188 55.59570312 C-13.33177548 55.48072452 -13.33177548 55.48072452 -14.5 54.3125 C-14.59868509 52.66058604 -14.62798837 51.00446783 -14.62939453 49.34960938 C-14.63254669 48.29181274 -14.63569885 47.23401611 -14.63894653 46.14416504 C-14.63591019 44.41764709 -14.63591019 44.41764709 -14.6328125 42.65625 C-14.63376923 41.48364624 -14.63472595 40.31104248 -14.63571167 39.10290527 C-14.6363937 36.61791938 -14.63453784 34.13293171 -14.63037109 31.64794922 C-14.62502319 27.82906113 -14.63031536 24.01029065 -14.63671875 20.19140625 C-14.63605797 17.78385391 -14.63477682 15.37630163 -14.6328125 12.96875 C-14.63483673 11.81773804 -14.63686096 10.66672607 -14.63894653 9.48083496 C-14.63579437 8.42303833 -14.63264221 7.3652417 -14.62939453 6.27539062 C-14.62859894 5.33908813 -14.62780334 4.40278564 -14.62698364 3.43811035 C-14.28585643 -2.27210168 -4.2694668 0.03208517 0 0 Z " fill="#052769" transform="translate(189.5,363.6875)"/>
<path d="M0 0 C4.95 0 9.9 0 15 0 C19.36464115 8.55811991 23.44887773 17.06491817 27 26 C27.71057786 24.45936658 28.41825414 22.91739506 29.125 21.375 C29.80755859 19.89 29.80755859 19.89 30.50390625 18.375 C31.56206308 15.9879308 32.5665375 13.61247946 33.52734375 11.1875 C33.78306152 10.55408691 34.0387793 9.92067383 34.30224609 9.26806641 C35.03612696 7.44067005 35.7546867 5.60714366 36.47265625 3.7734375 C38 1 38 1 40.09545898 0.32666016 C40.72395752 0.2188623 41.35245605 0.11106445 42 0 C42.49197876 1.1281311 42.49197876 1.1281311 42.99389648 2.27905273 C44.47267308 5.66626642 45.95503639 9.05189847 47.4375 12.4375 C47.95376953 13.62150391 48.47003906 14.80550781 49.00195312 16.02539062 C49.49501953 17.15009766 49.98808594 18.27480469 50.49609375 19.43359375 C51.17949829 20.99678345 51.17949829 20.99678345 51.87670898 22.59155273 C52.78643616 24.90042006 52.78643616 24.90042006 54 26 C54.32798584 25.2479126 54.65597168 24.4958252 54.99389648 23.72094727 C56.47267308 20.33373358 57.95503639 16.94810153 59.4375 13.5625 C59.95376953 12.37849609 60.47003906 11.19449219 61.00195312 9.97460938 C61.74155273 8.28754883 61.74155273 8.28754883 62.49609375 6.56640625 C62.95169678 5.52427979 63.4072998 4.48215332 63.87670898 3.40844727 C65 1 65 1 66 0 C68.53049402 -0.07313567 71.03304837 -0.09247527 73.5625 -0.0625 C74.62887695 -0.05573242 74.62887695 -0.05573242 75.71679688 -0.04882812 C77.47790013 -0.03700864 79.23896036 -0.01907263 81 0 C80.36520479 4.60906865 78.50730212 8.45890818 76.46484375 12.58203125 C76.10789932 13.31387131 75.7509549 14.04571136 75.38319397 14.79972839 C74.24003196 17.14000812 73.08883984 19.47623454 71.9375 21.8125 C71.19023979 23.34024279 70.44349044 24.86823557 69.69726562 26.39648438 C64.85712373 36.29376331 59.94222439 46.15336792 55 56 C54.01 56 53.02 56 52 56 C51.70754395 55.31897217 51.41508789 54.63794434 51.11376953 53.9362793 C49.78724727 50.85202296 48.4561795 47.76974894 47.125 44.6875 C46.66480469 43.61564453 46.20460937 42.54378906 45.73046875 41.43945312 C45.28574219 40.41142578 44.84101562 39.38339844 44.3828125 38.32421875 C43.77010498 36.9024231 43.77010498 36.9024231 43.14501953 35.4519043 C41.99590983 32.83078628 41.99590983 32.83078628 40 30 C39.55346069 31.07483643 39.55346069 31.07483643 39.09790039 32.17138672 C37.75350489 35.40623175 36.40801634 38.64062102 35.0625 41.875 C34.59392578 43.00292969 34.12535156 44.13085938 33.64257812 45.29296875 C33.19462891 46.36933594 32.74667969 47.44570313 32.28515625 48.5546875 C31.66459351 50.04718018 31.66459351 50.04718018 31.03149414 51.56982422 C30.39674734 53.06527266 29.72653555 54.5469289 29 56 C27.20751953 55.88378906 27.20751953 55.88378906 25 55 C23.32763672 52.37402344 23.32763672 52.37402344 21.6796875 48.859375 C21.37906906 48.2288623 21.07845062 47.59834961 20.76872253 46.94873047 C19.79040827 44.88866408 18.83258162 42.81977417 17.875 40.75 C17.20887224 39.33566355 16.54146731 37.92192794 15.87280273 36.50878906 C14.53549443 33.67827384 13.20568043 30.84442027 11.88134766 28.0078125 C10.21606186 24.44831308 8.51308402 20.90838747 6.79296875 17.375 C6.32584473 16.41239258 5.8587207 15.44978516 5.37744141 14.45800781 C4.51914279 12.69041623 3.65825603 10.92407836 2.79443359 9.15917969 C2.23296631 7.98983887 2.23296631 7.98983887 1.66015625 6.796875 C1.17494507 5.79672363 1.17494507 5.79672363 0.67993164 4.77636719 C0 3 0 3 0 0 Z " fill="#042768" transform="translate(41,364)"/>
<path d="M0 0 C4.06038008 1.01509502 4.50565355 1.1314998 6.8828125 4.140625 C7.40593018 4.79353516 7.92904785 5.44644531 8.46801758 6.11914062 C9.01482178 6.82232422 9.56162598 7.52550781 10.125 8.25 C10.69178467 8.96349609 11.25856934 9.67699219 11.8425293 10.41210938 C13.573752 12.598917 15.28932589 14.79709193 17 17 C17.52126465 17.66966797 18.0425293 18.33933594 18.57958984 19.02929688 C21.40802324 22.6699462 24.21377447 26.32696228 27 30 C30.653276 26.43887871 34.03514852 22.72413982 37.3125 18.8125 C37.78888916 18.24877686 38.26527832 17.68505371 38.75610352 17.10424805 C42.37428189 12.80360072 45.85140153 8.40560186 49.24609375 3.92578125 C51 2 51 2 55 0 C55 18.48 55 36.96 55 56 C50.71 56 46.42 56 42 56 C40.48578999 54.48578999 40.78690144 53.07527232 40.68359375 50.96484375 C40.64169922 50.15595703 40.59980469 49.34707031 40.55664062 48.51367188 C40.51732422 47.66353516 40.47800781 46.81339844 40.4375 45.9375 C40.39431641 45.08349609 40.35113281 44.22949219 40.30664062 43.34960938 C40.20023298 41.23327963 40.09958269 39.11666187 40 37 C36.04 41.29 32.08 45.58 28 50 C22.61622763 45.69298211 19.20829244 41.42085128 15 36 C14.67 42.6 14.34 49.2 14 56 C9.38 56 4.76 56 0 56 C0 37.52 0 19.04 0 0 Z " fill="#022567" transform="translate(399,363)"/>
<path d="M0 0 C4.62 0 9.24 0 14 0 C14 7.92 14 15.84 14 24 C20.27 24 26.54 24 33 24 C32.98839844 22.35128906 32.97679687 20.70257813 32.96484375 19.00390625 C32.95546762 16.85677196 32.94636723 14.70963645 32.9375 12.5625 C32.92912109 11.47388672 32.92074219 10.38527344 32.91210938 9.26367188 C32.90888672 8.22919922 32.90566406 7.19472656 32.90234375 6.12890625 C32.89710693 5.17056885 32.89187012 4.21223145 32.88647461 3.22485352 C33 1 33 1 34 0 C38.62 0 43.24 0 48 0 C48 18.15 48 36.3 48 55 C43.38 55 38.76 55 34 55 C34 48.73 34 42.46 34 36 C27.4 36 20.8 36 14 36 C14 42.27 14 48.54 14 55 C9.38 55 4.76 55 0 55 C0 36.85 0 18.7 0 0 Z " fill="#022567" transform="translate(224,292)"/>
<path d="M0 0 C0.77915771 0.00202423 1.55831543 0.00404846 2.36108398 0.00613403 C3.15635498 0.00517731 3.95162598 0.00422058 4.77099609 0.00323486 C6.45564859 0.0025531 8.1403037 0.00440711 9.82495117 0.00857544 C12.41257595 0.01392378 15.00002714 0.00863034 17.58764648 0.00222778 C19.22045937 0.00288857 20.85327215 0.00416973 22.48608398 0.00613403 C23.2652417 0.0041098 24.04439941 0.00208557 24.84716797 0 C30.30863294 0.02399549 30.30863294 0.02399549 31.42358398 1.13894653 C31.52209569 2.97010536 31.55331027 4.80514587 31.54858398 6.63894653 C31.55245117 8.13941528 31.55245117 8.13941528 31.55639648 9.67019653 C31.42358398 12.13894653 31.42358398 12.13894653 30.42358398 13.13894653 C28.78885517 13.22594996 27.15044343 13.24595716 25.51342773 13.23660278 C24.52407227 13.23338013 23.5347168 13.23015747 22.51538086 13.22683716 C21.47446289 13.21845825 20.43354492 13.21007935 19.36108398 13.20144653 C18.31629883 13.19693481 17.27151367 13.1924231 16.19506836 13.18777466 C13.60454944 13.1759458 11.01405976 13.15800972 8.42358398 13.13894653 C8.42358398 16.76894653 8.42358398 20.39894653 8.42358398 24.13894653 C9.78354492 24.12734497 11.14350586 24.11574341 12.54467773 24.10379028 C14.31681179 24.09441391 16.08894731 24.08531355 17.86108398 24.07644653 C19.20783203 24.06387817 19.20783203 24.06387817 20.58178711 24.05105591 C21.43579102 24.04783325 22.28979492 24.0446106 23.16967773 24.04129028 C24.35581665 24.03343506 24.35581665 24.03343506 25.56591797 24.02542114 C27.42358398 24.13894653 27.42358398 24.13894653 28.42358398 25.13894653 C28.56668686 28.80810423 28.4658006 32.46610094 28.42358398 36.13894653 C21.82358398 36.13894653 15.22358398 36.13894653 8.42358398 36.13894653 C8.42358398 38.44894653 8.42358398 40.75894653 8.42358398 43.13894653 C16.01358398 43.13894653 23.60358398 43.13894653 31.42358398 43.13894653 C31.42358398 46.76894653 31.42358398 50.39894653 31.42358398 54.13894653 C29.6352795 55.92725102 27.22777247 55.26743364 24.84716797 55.27789307 C24.06801025 55.27586884 23.28885254 55.2738446 22.48608398 55.27175903 C21.29317749 55.27319412 21.29317749 55.27319412 20.07617188 55.2746582 C18.39151938 55.27533996 16.70686427 55.27348596 15.0222168 55.26931763 C12.43459202 55.26396929 9.84714083 55.26926272 7.25952148 55.27566528 C5.6267086 55.2750045 3.99389582 55.27372334 2.36108398 55.27175903 C1.58192627 55.27378326 0.80276855 55.2758075 0 55.27789307 C-5.46146497 55.25389758 -5.46146497 55.25389758 -6.57641602 54.13894653 C-6.67510111 52.48703257 -6.70440438 50.83091436 -6.70581055 49.17605591 C-6.70896271 48.11825928 -6.71211487 47.06046265 -6.71536255 45.97061157 C-6.7123262 44.24409363 -6.7123262 44.24409363 -6.70922852 42.48269653 C-6.71018524 41.31009277 -6.71114197 40.13748901 -6.71212769 38.92935181 C-6.71280972 36.44436591 -6.71095385 33.95937825 -6.70678711 31.47439575 C-6.70143921 27.65550766 -6.70673137 23.83673719 -6.71313477 20.01785278 C-6.71247399 17.61030044 -6.71119283 15.20274817 -6.70922852 12.79519653 C-6.71125275 11.64418457 -6.71327698 10.49317261 -6.71536255 9.30728149 C-6.71221039 8.24948486 -6.70905823 7.19168823 -6.70581055 6.10183716 C-6.70501495 5.16553467 -6.70421936 4.22923218 -6.70339966 3.26455688 C-6.44562115 -1.05046086 -3.67688028 0.01615474 0 0 Z " fill="#092B6B" transform="translate(134.576416015625,363.8610534667969)"/>
<path d="M0 0 C1.51815699 0.00015911 3.0363194 0.00585313 4.55444336 0.01586914 C5.35208603 0.01728409 6.1497287 0.01869904 6.97154236 0.02015686 C9.52916146 0.02577223 12.08669429 0.03832727 14.64428711 0.05102539 C16.37410356 0.05603841 18.10392137 0.06060166 19.83374023 0.06469727 C24.08312264 0.07574664 28.33244023 0.09302153 32.58178711 0.11352539 C32.58178711 4.40352539 32.58178711 8.69352539 32.58178711 13.11352539 C25.32178711 13.11352539 18.06178711 13.11352539 10.58178711 13.11352539 C10.58178711 16.74352539 10.58178711 20.37352539 10.58178711 24.11352539 C16.85178711 24.11352539 23.12178711 24.11352539 29.58178711 24.11352539 C29.58178711 28.07352539 29.58178711 32.03352539 29.58178711 36.11352539 C23.31178711 36.11352539 17.04178711 36.11352539 10.58178711 36.11352539 C10.58178711 38.42352539 10.58178711 40.73352539 10.58178711 43.11352539 C17.84178711 43.11352539 25.10178711 43.11352539 32.58178711 43.11352539 C32.58178711 47.07352539 32.58178711 51.03352539 32.58178711 55.11352539 C27.47314815 55.13817549 22.36454352 55.15636146 17.25585938 55.16845703 C15.51659543 55.17349743 13.77733575 55.18032969 12.03808594 55.18896484 C9.54352774 55.20104331 7.04902538 55.20675647 4.55444336 55.21118164 C3.77214859 55.21634293 2.98985382 55.22150421 2.18385315 55.2268219 C0.31611597 55.22701765 -1.55150493 55.17552233 -3.41821289 55.11352539 C-5.08537974 53.44635855 -4.54566171 51.44046399 -4.54760742 49.15063477 C-4.55075958 48.09283813 -4.55391174 47.0350415 -4.55715942 45.94519043 C-4.55412308 44.21867249 -4.55412308 44.21867249 -4.55102539 42.45727539 C-4.55198212 41.28467163 -4.55293884 40.11206787 -4.55392456 38.90393066 C-4.55460659 36.41894477 -4.55275073 33.93395711 -4.54858398 31.44897461 C-4.54323608 27.63008652 -4.54852825 23.81131605 -4.55493164 19.99243164 C-4.55427086 17.5848793 -4.55298971 15.17732702 -4.55102539 12.76977539 C-4.55304962 11.61876343 -4.55507385 10.46775146 -4.55715942 9.28186035 C-4.55400726 8.22406372 -4.5508551 7.16626709 -4.54760742 6.07641602 C-4.54681183 5.14011353 -4.54601624 4.20381104 -4.54519653 3.23913574 C-4.33181293 -0.33274469 -3.70579593 0.12307657 0 0 Z " fill="#052769" transform="translate(287.418212890625,291.886474609375)"/>
<path d="M0 0 C5.53588533 -0.02464775 11.071739 -0.04283496 16.60766602 -0.05493164 C18.4924373 -0.05997244 20.37720465 -0.06680498 22.26196289 -0.07543945 C24.96501636 -0.08751617 27.66801831 -0.09323068 30.37109375 -0.09765625 C31.21900986 -0.10281754 32.06692596 -0.10797882 32.9405365 -0.11329651 C34.96071068 -0.11349195 36.98077934 -0.06206211 39 0 C40 1 40 1 40.09765625 3.50390625 C40.06510417 6.3359375 40.03255208 9.16796875 40 12 C35.71 12 31.42 12 27 12 C27 26.19 27 40.38 27 55 C22.38 55 17.76 55 13 55 C12 54 12 54 11.88647461 50.12280273 C11.88663379 48.39305833 11.89233151 46.66330919 11.90234375 44.93359375 C11.9037587 44.02497086 11.90517365 43.11634796 11.90663147 42.18019104 C11.91224807 39.26592779 11.92480335 36.35174019 11.9375 33.4375 C11.94251286 31.46679798 11.94707614 29.49609476 11.95117188 27.52539062 C11.96222289 22.68356441 11.97949862 17.84179505 12 13 C11.21753906 13.01160156 10.43507812 13.02320313 9.62890625 13.03515625 C8.61699219 13.04417969 7.60507813 13.05320312 6.5625 13.0625 C5.55316406 13.07410156 4.54382813 13.08570313 3.50390625 13.09765625 C1 13 1 13 0 12 C-0.07244053 9.98035801 -0.08377188 7.95832876 -0.0625 5.9375 C-0.05347656 4.83277344 -0.04445312 3.72804688 -0.03515625 2.58984375 C-0.02355469 1.73519531 -0.01195312 0.88054687 0 0 Z " fill="#07296A" transform="translate(177,292)"/>
<path d="M0 0 C1.1859375 0.00257813 2.371875 0.00515625 3.59375 0.0078125 C4.7796875 0.00523437 5.965625 0.00265625 7.1875 0 C10.09375 0.1328125 10.09375 0.1328125 11.09375 1.1328125 C11.18246273 4.16259054 11.2089435 7.16948272 11.19140625 10.19921875 C11.1899913 11.10784164 11.18857635 12.01646454 11.18711853 12.95262146 C11.18150193 15.86688471 11.16894665 18.78107231 11.15625 21.6953125 C11.15123714 23.66601452 11.14667386 25.63671774 11.14257812 27.60742188 C11.13152711 32.44924809 11.11425138 37.29101745 11.09375 42.1328125 C12.91712891 42.11541016 12.91712891 42.11541016 14.77734375 42.09765625 C16.36197764 42.08827972 17.94661318 42.07917937 19.53125 42.0703125 C20.33369141 42.06193359 21.13613281 42.05355469 21.96289062 42.04492188 C24.00670221 42.0362982 26.05058902 42.080531 28.09375 42.1328125 C29.09375 43.1328125 29.09375 43.1328125 29.2265625 45.6015625 C29.22398437 46.601875 29.22140625 47.6021875 29.21875 48.6328125 C29.22261719 50.13328125 29.22261719 50.13328125 29.2265625 51.6640625 C29.09375 54.1328125 29.09375 54.1328125 28.09375 55.1328125 C25.81427208 55.2330218 23.53167865 55.26362553 21.25 55.265625 C20.56570923 55.26658173 19.88141846 55.26753845 19.1763916 55.26852417 C17.72713123 55.2692058 16.27786782 55.26735273 14.82861328 55.26318359 C12.60312072 55.25783502 10.37782999 55.2631291 8.15234375 55.26953125 C6.74739539 55.26887047 5.34244715 55.2675893 3.9375 55.265625 C2.65037109 55.26449707 1.36324219 55.26336914 0.03710938 55.26220703 C-2.90625 55.1328125 -2.90625 55.1328125 -3.90625 54.1328125 C-4.00493509 52.48089854 -4.03423837 50.82478033 -4.03564453 49.16992188 C-4.03879669 48.11212524 -4.04194885 47.05432861 -4.04519653 45.96447754 C-4.04216019 44.23795959 -4.04216019 44.23795959 -4.0390625 42.4765625 C-4.04001923 41.30395874 -4.04097595 40.13135498 -4.04196167 38.92321777 C-4.0426437 36.43823188 -4.04078784 33.95324421 -4.03662109 31.46826172 C-4.03127319 27.64937363 -4.03656536 23.83060315 -4.04296875 20.01171875 C-4.04230797 17.60416641 -4.04102682 15.19661413 -4.0390625 12.7890625 C-4.04108673 11.63805054 -4.04311096 10.48703857 -4.04519653 9.30114746 C-4.04204437 8.24335083 -4.03889221 7.1855542 -4.03564453 6.09570312 C-4.03484894 5.15940063 -4.03405334 4.22309814 -4.03323364 3.25842285 C-3.83476719 -0.06375574 -3.3831641 0.15460696 0 0 Z " fill="#07296A" transform="translate(230.90625,363.8671875)"/>
<path d="M0 0 C4.57756641 2.20704095 6.7617507 4.49799429 9 9 C9.80983332 14.82934071 9.7949869 20.22656769 7.375 25.625 C3.25549165 29.74450835 -0.23623767 31.16921677 -6 31.4375 C-10.71039506 31.28166738 -13.43152073 30.22033495 -17 27 C-21.09870077 21.37164057 -20.76011466 15.71434617 -20 9 C-15.85772556 0.10178084 -9.13675926 -1.20750122 0 0 Z " fill="#FBFCFC" transform="translate(366,376)"/>
<path d="M0 0 C4.57756641 2.20704095 6.7617507 4.49799429 9 9 C9.80983332 14.82934071 9.7949869 20.22656769 7.375 25.625 C3.25549165 29.74450835 -0.23623767 31.16921677 -6 31.4375 C-10.71039506 31.28166738 -13.43152073 30.22033495 -17 27 C-21.09870077 21.37164057 -20.76011466 15.71434617 -20 9 C-15.85772556 0.10178084 -9.13675926 -1.20750122 0 0 Z " fill="#FBFCFC" transform="translate(300,376)"/>
<path d="M0 0 C1.5675 -0.061875 3.135 -0.12375 4.75 -0.1875 C6.07257813 -0.23970703 6.07257813 -0.23970703 7.421875 -0.29296875 C10.49044646 0.05573255 11.80214362 0.86291384 14 3 C14.375 5.5625 14.375 5.5625 14 8 C12 10 12 10 9.1796875 10.1953125 C8.08914062 10.17210937 6.99859375 10.14890625 5.875 10.125 C4.77929688 10.10695313 3.68359375 10.08890625 2.5546875 10.0703125 C1.71164063 10.04710937 0.86859375 10.02390625 0 10 C0 6.7 0 3.4 0 0 Z " fill="#F2F4F7" transform="translate(190,396)"/>
<path d="M0 0 C1.97909398 -0.02686553 3.95828971 -0.04633375 5.9375 -0.0625 C7.03964844 -0.07410156 8.14179688 -0.08570313 9.27734375 -0.09765625 C12 0 12 0 13 1 C13.04080783 2.99958364 13.04254356 5.00045254 13 7 C10.35541621 8.32229189 8.32238699 8.09677194 5.375 8.0625 C4.37210938 8.05347656 3.36921875 8.04445313 2.3359375 8.03515625 C1.56507813 8.02355469 0.79421875 8.01195312 0 8 C0 5.36 0 2.72 0 0 Z " fill="#FBFBFC" transform="translate(190,377)"/>
</svg>
